<svg width="55" height="43" viewBox="0 0 55 43" fill="none" xmlns="http://www.w3.org/2000/svg">
<g clip-path="url(#clip0_3808_21089)">
<path d="M45.4438 11.697C45.0963 10.7846 44.3825 9.97002 43.5138 9.38267C41.006 7.79029 37.1841 7.67689 34.6001 9.11648C33.1908 9.83498 32.2646 11.2568 31.9763 12.7211C31.4535 15.1268 31.5885 17.9891 33.4419 19.7922C35.603 21.6867 38.7484 22.1053 41.5453 21.327C41.6782 21.3015 42.0993 21.1955 42.3898 21.0414L42.4716 21.0063C43.3403 20.6453 44.1687 20.0576 44.7872 19.2616C46.2147 17.1745 46.3125 14.0473 45.4438 11.697ZM40.89 17.0992C40.7913 17.5554 40.4845 18.028 40.0005 18.1994C39.2301 18.5383 38.1879 18.4444 37.4741 18.0479C36.8755 17.6294 36.7985 16.9286 36.7214 16.2655C36.663 14.9584 36.5686 13.5742 36.9348 12.3792C37.2218 11.639 38.0134 11.4486 38.7293 11.3927C39.4812 11.3927 40.2131 11.5074 40.6775 12.1138C40.9666 12.5488 40.9489 13.118 41.006 13.6305C40.9857 14.7104 41.0826 15.9985 40.89 17.0992ZM18.0249 18.2765C17.3878 18.2375 16.674 18.2933 16.0573 18.2176L16.0763 11.5615L16.1153 11.5061L18.0249 11.4875C18.0448 10.4072 18.0639 9.2485 18.005 8.26381L10.7321 8.24346L9.53451 8.26424C9.51546 9.2684 9.51546 10.4427 9.53451 11.4676C10.1911 11.488 10.8075 11.4676 11.4446 11.5269V17.9731L11.426 18.2379L9.51546 18.2769C9.47564 19.3193 9.47564 20.3629 9.51546 21.4054H18.0245L18.0249 18.2765ZM39.4413 22.8259C38.6319 23.9838 37.6092 25.1022 36.4925 25.9722C36.4518 26.0315 36.3362 26.009 36.2994 25.9544C35.8155 25.6519 35.2948 25.4043 34.8308 25.1022C35.4489 24.3634 36.0475 23.6241 36.5106 22.8056H35.9103C35.4307 23.5098 34.9278 24.2487 34.2915 24.8724C33.4419 24.5317 32.6706 24.2287 31.8023 23.9993L31.7058 23.9271C31.8408 23.544 32.091 23.1843 32.1676 22.8047H31.6469L31.1262 23.8292C29.9892 23.583 28.7344 23.4488 27.5766 23.3739C27.5182 23.2038 27.5948 22.9571 27.5182 22.8047H27.0165C26.9767 23.0328 27.0745 23.2047 26.9585 23.3938C25.7622 23.4488 24.6048 23.583 23.4868 23.8128L22.9639 22.8047C22.773 22.8047 22.5584 22.7684 22.4251 22.8251L22.9064 23.9439L22.8488 23.9993C21.984 24.2495 21.1338 24.5475 20.302 24.8918L20.2254 24.8529C19.6839 24.2651 19.1628 23.6232 18.7378 22.9783C18.6421 22.6541 18.256 22.8437 18.0435 22.8056C18.5049 23.641 19.1243 24.3794 19.7406 25.139C19.2199 25.4433 18.701 25.7826 18.1582 26.0315C16.978 25.1326 15.9491 24.0507 15.1107 22.8268C14.8787 22.7896 14.7259 22.8065 14.4926 22.8268C15.882 24.9884 18.0435 26.8837 20.3012 28.0026C20.3012 28.0026 20.3012 27.9857 20.3219 27.9857C20.3384 27.9857 20.3769 28.0208 20.3384 28.0407C21.8637 28.7804 23.4855 29.311 25.2012 29.5396C31.1254 30.3161 36.7794 27.7957 40.0577 22.8268C39.8528 22.8057 39.6463 22.8054 39.4413 22.8259ZM31.3972 24.5322L31.4539 24.4941C32.2858 24.6836 33.0753 24.9494 33.8089 25.3087C33.1908 26.0085 32.3996 26.6167 31.6673 27.1283C31.2241 27.3927 30.7787 27.6801 30.3151 27.9061L29.4871 27.546L29.5438 27.4148C30.2398 26.4864 30.8574 25.5372 31.3972 24.5322ZM27.5948 23.963C28.6955 23.9838 29.7957 24.0972 30.8168 24.3426L30.8371 24.4001C30.2978 25.4229 29.6208 26.4111 28.8889 27.3382C28.5591 27.3771 28.2518 27.246 27.9242 27.2257L27.5943 27.1867C27.5567 26.0678 27.5363 25.0819 27.5948 23.963ZM23.8724 24.3041C24.8757 24.1145 25.9171 23.963 26.997 23.963L27.0169 27.1707C26.6109 27.2624 26.1673 27.2624 25.7812 27.3598C24.99 26.4284 24.3347 25.4229 23.7759 24.3794L23.8724 24.3041ZM20.7643 25.329C21.5187 24.9676 22.3086 24.7005 23.118 24.4936L23.1964 24.5135C23.7543 25.5567 24.4498 26.5418 25.1441 27.5278C24.8762 27.6806 24.5464 27.7719 24.2771 27.926C22.9723 27.2814 21.785 26.4223 20.7647 25.3844V25.329H20.7643ZM23.2544 28.5709C21.6334 28.1523 20.1272 27.4321 18.7382 26.4479V26.389C19.2013 26.1072 19.6662 25.8029 20.1661 25.5922C21.2668 26.676 22.4043 27.4914 23.6391 28.267C23.5431 28.3809 23.389 28.4951 23.2544 28.5709ZM30.4121 28.8159C28.3674 29.2548 26.0894 29.2716 24.0451 28.7795C24.0062 28.6852 24.1417 28.6648 24.1992 28.6094C25.9937 27.4516 28.7902 27.4516 30.548 28.7016C30.6051 28.8159 30.451 28.7795 30.4121 28.8159ZM32.265 28.287L31.3582 28.5705C31.2033 28.4947 31.0691 28.3809 30.9328 28.2666L30.9717 28.2086C32.207 27.491 33.3254 26.6162 34.3872 25.5735C34.9083 25.7817 35.4104 26.0678 35.8748 26.3886C34.7932 27.246 33.5384 27.8121 32.265 28.287ZM15.073 6.80301C15.5503 6.14253 16.0723 5.51561 16.6355 4.92669C17.1354 4.45274 17.6003 3.99783 18.1413 3.65503C18.6434 3.97706 19.2022 4.24541 19.6844 4.54753C19.0866 5.28334 18.469 6.02608 18.0253 6.82032C18.1595 6.87962 18.4114 6.86101 18.6049 6.82032C19.0866 6.12 19.606 5.41882 20.2258 4.79251C21.0534 5.09679 21.865 5.41795 22.715 5.64648L22.7899 5.7218L22.3095 6.82032C22.5224 6.86101 22.6575 6.84109 22.8683 6.82032C23.0414 6.50003 23.1756 6.14078 23.3686 5.81659C24.4892 6.06417 25.6665 6.19618 26.8629 6.23297C27.0161 6.36758 26.9009 6.65065 26.9589 6.82032H27.4796C27.5363 6.6342 27.4602 6.42298 27.5363 6.25418C28.6565 6.19531 29.8329 6.08148 30.9172 5.81572L31.0111 5.83563L31.5322 6.81945C31.7062 6.81945 31.9374 6.86014 32.0724 6.7805L31.5889 5.68371L31.6292 5.64562C32.5152 5.41795 33.3462 5.07688 34.195 4.73624C34.7949 5.36168 35.3528 6.10096 35.8562 6.81902C36.0674 6.81902 36.2799 6.8398 36.4345 6.78007C36.1962 6.35676 35.9182 5.95705 35.6043 5.58632C35.3495 5.2232 35.0651 4.8817 34.7542 4.56527V4.46702L36.1051 3.69096L36.2999 3.61521C37.4746 4.50441 38.5027 5.57233 39.3465 6.78007C39.5781 6.78007 39.7716 6.85971 39.9651 6.76405C37.3767 2.89931 33.1134 0.412704 28.5041 0.0547536L28.4838 0.0915442L28.4444 0.0547536C27.9242 -0.00108145 27.2849 -0.0231558 26.7261 0.0326793C26.5144 0.0162318 26.2643 0.0326793 26.0128 0.0547536C21.3828 0.412704 17.119 2.78418 14.4549 6.82119C14.648 6.80301 14.8795 6.88005 15.073 6.80301ZM23.0817 5.13704L23.0046 5.15349C22.2125 4.94703 21.4399 4.69815 20.7067 4.37699L20.7439 4.26316C21.8052 3.25856 22.9241 2.42363 24.159 1.78045C24.4498 1.89428 24.739 1.98821 25.0281 2.12282L24.9714 2.27084C24.2369 3.18325 23.6595 4.16707 23.0817 5.13704ZM26.92 5.64735C26.3811 5.7231 25.8985 5.63047 25.3562 5.58849C24.8376 5.51231 24.1802 5.45734 23.6595 5.28421C24.2191 4.24628 24.8762 3.23952 25.6665 2.31283L26.9018 2.4812C26.9589 3.46545 26.92 4.6038 26.92 5.64735ZM27.5177 5.66769C27.4796 4.65963 27.4995 3.5425 27.5177 2.49938C27.9051 2.44398 28.3276 2.38511 28.7145 2.32928C29.4668 3.27587 30.2017 4.24628 30.7038 5.28421C29.6605 5.53662 28.5911 5.66534 27.5177 5.66769ZM33.6747 4.33847C32.9207 4.6592 32.1481 4.96305 31.3197 5.13704C30.722 4.13201 30.0662 3.12741 29.3309 2.15658C29.6014 2.00812 29.9312 1.89428 30.2199 1.74322C31.4764 2.36823 32.6905 3.25856 33.712 4.27917L33.6747 4.33847ZM31.2033 1.09658C32.8242 1.51469 34.3487 2.23405 35.738 3.22004L35.6995 3.29578L34.3694 4.03419H34.2712C33.2501 3.01401 32.0542 2.12282 30.8371 1.41947C30.8756 1.28659 31.0695 1.19093 31.2033 1.09658ZM30.4324 0.90613V0.946383C28.7526 2.15658 26.0327 2.27084 24.2585 1.15198C24.159 1.07623 23.9685 1.03944 23.9477 0.906563C25.9942 0.434778 28.4046 0.396689 30.4324 0.90613ZM18.6616 3.25856C19.8783 2.36823 21.2283 1.7047 22.6566 1.24936C22.715 1.19007 22.7523 1.13423 22.8284 1.13423V1.17319C22.9825 1.21041 23.099 1.03858 23.2336 1.15111C23.35 1.24936 23.4864 1.32424 23.5816 1.4186C22.3861 2.15658 21.2084 3.03046 20.1276 4.09003C19.6065 3.90391 19.126 3.61781 18.6612 3.29578L18.6616 3.25856ZM26.9399 18.4245C25.1263 18.9184 23.157 18.5418 21.8455 17.1745C21.6918 16.9849 21.5944 16.759 21.4395 16.5702L18.8356 16.5884C18.7945 18.1237 18.7763 19.8875 18.8356 21.405L21.7286 21.3863L21.7671 20.4757C22.0965 20.6272 22.4251 20.8163 22.7523 20.9864C24.7589 21.8218 27.342 22.0114 29.33 20.9864C30.7782 20.1922 31.5504 18.6569 31.3375 17.0039C31.1262 15.3942 29.5819 13.9334 28.0202 13.5365L23.3496 12.1891L23.0042 12.0177C22.8497 11.8862 22.7527 11.7165 22.7904 11.5061C23.157 10.882 24.007 11.0716 24.6437 11.0885C25.9942 11.2785 27.3831 11.7334 28.1748 12.9665C29.0227 12.9665 30.0065 12.983 30.9319 12.9466C30.9713 11.3923 30.9167 10.028 30.8938 8.45382C30.0255 8.43391 28.9638 8.43391 28.0969 8.47373C28.0579 8.69923 28.1341 9.02039 28.0376 9.24893L27.1507 8.77455C25.0272 7.88378 22.0554 7.79072 20.1267 9.17491C18.8719 10.0834 18.4872 11.7156 18.8152 13.1561C19.065 14.5191 20.3769 15.525 21.6317 15.9976C23.3487 16.6036 25.1424 17.0425 26.8819 17.6294C27.0542 17.7064 27.2853 17.8783 27.2481 18.0865C27.2489 18.2548 27.0741 18.3522 26.9399 18.4245Z" fill="white"/>
</g>
<path opacity="0.9" d="M3.67879 42.7311C2.77679 42.7311 2.07279 42.4121 1.57779 41.9171L2.17179 40.9491C2.55679 41.3451 2.98579 41.5871 3.67879 41.5871C5.00979 41.5871 5.61479 40.3771 5.61479 39.1781C5.61479 39.1011 5.61479 39.0351 5.61479 38.9581C5.27379 39.4531 4.50379 39.9921 3.64579 39.9921C2.32579 39.9921 1.18179 39.1781 1.18179 37.6161C1.18179 36.2631 2.24879 35.1521 3.88779 35.1521C6.04379 35.1521 6.91279 36.9011 6.91279 38.9471C6.91279 41.0591 5.80179 42.7311 3.67879 42.7311ZM3.98679 38.8811C4.61379 38.8811 5.22979 38.5511 5.59279 38.0231C5.52679 37.2311 5.08679 36.2961 3.95379 36.2961C2.99679 36.2961 2.49079 36.9891 2.49079 37.5721C2.49079 38.4741 3.19479 38.8811 3.98679 38.8811ZM10.7582 42.7421C8.70124 42.7421 7.82124 40.7951 7.82124 38.9471C7.82124 37.0991 8.70124 35.1631 10.7582 35.1631C12.8152 35.1631 13.6952 37.0991 13.6952 38.9471C13.6952 40.7951 12.8152 42.7421 10.7582 42.7421ZM10.7582 41.5981C11.9572 41.5981 12.3862 40.3441 12.3862 38.9471C12.3862 37.5501 11.9572 36.3071 10.7582 36.3071C9.55924 36.3071 9.13024 37.5501 9.13024 38.9471C9.13024 40.3441 9.55924 41.5981 10.7582 41.5981ZM17.5366 42.7421C15.4796 42.7421 14.5996 40.7951 14.5996 38.9471C14.5996 37.0991 15.4796 35.1631 17.5366 35.1631C19.5936 35.1631 20.4736 37.0991 20.4736 38.9471C20.4736 40.7951 19.5936 42.7421 17.5366 42.7421ZM17.5366 41.5981C18.7356 41.5981 19.1646 40.3441 19.1646 38.9471C19.1646 37.5501 18.7356 36.3071 17.5366 36.3071C16.3376 36.3071 15.9086 37.5501 15.9086 38.9471C15.9086 40.3441 16.3376 41.5981 17.5366 41.5981ZM24.3259 42.6101H23.0389V36.9451L21.8399 38.1881L21.0919 37.4071L23.2039 35.2731H24.3259V42.6101ZM29.2728 38.7601C28.8548 38.7601 28.5028 38.4081 28.5028 37.9901C28.5028 37.5721 28.8548 37.2201 29.2728 37.2201C29.6908 37.2201 30.0428 37.5721 30.0428 37.9901C30.0428 38.4081 29.6908 38.7601 29.2728 38.7601ZM29.2728 42.7311C28.8548 42.7311 28.5028 42.3791 28.5028 41.9611C28.5028 41.5431 28.8548 41.1911 29.2728 41.1911C29.6908 41.1911 30.0428 41.5431 30.0428 41.9611C30.0428 42.3791 29.6908 42.7311 29.2728 42.7311ZM36.4901 42.6101H31.1771V41.5981C34.0261 39.4421 35.1371 38.4851 35.1371 37.4291C35.1371 36.6591 34.4771 36.3071 33.8061 36.3071C32.9481 36.3071 32.2881 36.6591 31.8261 37.1871L31.0781 36.3401C31.7271 35.5591 32.7611 35.1631 33.7841 35.1631C35.2031 35.1631 36.4461 35.9661 36.4461 37.4291C36.4461 38.7821 35.2031 39.9921 33.2341 41.4771H36.4901V42.6101ZM40.5571 42.7421C38.5001 42.7421 37.6201 40.7951 37.6201 38.9471C37.6201 37.0991 38.5001 35.1631 40.5571 35.1631C42.6141 35.1631 43.4941 37.0991 43.4941 38.9471C43.4941 40.7951 42.6141 42.7421 40.5571 42.7421ZM40.5571 41.5981C41.7561 41.5981 42.1851 40.3441 42.1851 38.9471C42.1851 37.5501 41.7561 36.3071 40.5571 36.3071C39.3581 36.3071 38.9291 37.5501 38.9291 38.9471C38.9291 40.3441 39.3581 41.5981 40.5571 41.5981ZM47.3464 42.6101H46.0594V36.9451L44.8604 38.1881L44.1124 37.4071L46.2244 35.2731H47.3464V42.6101ZM51.4701 42.7421C50.2051 42.7421 49.3361 42.3131 48.7421 41.6091L49.4791 40.7291C49.9741 41.2901 50.6341 41.5981 51.4591 41.5981C52.3831 41.5981 52.9661 41.0261 52.9661 40.3111C52.9661 39.5191 52.3941 39.0021 51.4921 39.0021C50.8651 39.0021 50.3481 39.2001 49.8861 39.6401L48.9731 39.3761V35.2731H53.7801V36.4061H50.2601V38.5291C50.6121 38.1771 51.2171 37.8911 51.9211 37.8911C53.1531 37.8911 54.2641 38.7601 54.2641 40.2561C54.2641 41.7851 53.1091 42.7421 51.4701 42.7421Z" fill="white"/>
<defs>
<clipPath id="clip0_3808_21089">
<rect width="36.5144" height="29.6789" fill="white" transform="translate(9.4856)"/>
</clipPath>
</defs>
</svg>
