<svg width="50" height="50" viewBox="0 0 50 50" fill="none" xmlns="http://www.w3.org/2000/svg">
<path d="M47.2969 5.92212C47.5994 5.92212 47.8895 6.04229 48.1034 6.2562C48.3173 6.47011 48.4375 6.76023 48.4375 7.06274V36.2659C48.4375 36.5684 48.3173 36.8585 48.1034 37.0724C47.8895 37.2863 47.5994 37.4065 47.2969 37.4065H2.70314C2.40063 37.4065 2.11048 37.2863 1.89657 37.0724C1.68266 36.8585 1.5625 36.5684 1.5625 36.2659V7.06274C1.5625 6.76023 1.68266 6.47011 1.89657 6.2562C2.11048 6.04229 2.40063 5.92212 2.70314 5.92212H47.2969ZM47.2969 4.35962H2.70314C1.98623 4.35962 1.29867 4.64441 0.79174 5.15135C0.284806 5.65828 0 6.34583 0 7.06274V36.2659C0.00410124 36.9815 0.290222 37.6667 0.79627 38.1727C1.30232 38.6788 1.98749 38.9649 2.70314 38.969H47.2969C48.0125 38.9649 48.6977 38.6788 49.2037 38.1727C49.7098 37.6667 49.9959 36.9815 50 36.2659V7.06274C50 6.34583 49.7152 5.65828 49.2083 5.15135C48.7013 4.64441 48.0138 4.35962 47.2969 4.35962Z" fill="#012842"/>
<path d="M50 31.4692H0.78125V33.0317H50V31.4692Z" fill="#012842"/>
<path d="M30.5936 38.6094H29.0311V44.8594H30.5936V38.6094Z" fill="#012842"/>
<path d="M20.9688 38.6094H19.4063V44.8594H20.9688V38.6094Z" fill="#012842"/>
<path d="M36.8438 45.6409H13.1563C12.9491 45.6409 12.7504 45.5586 12.6038 45.412C12.4573 45.2655 12.3751 45.0668 12.3751 44.8596C12.3751 44.6524 12.4573 44.4537 12.6038 44.3072C12.7504 44.1607 12.9491 44.0784 13.1563 44.0784H36.8438C37.051 44.0784 37.2497 44.1607 37.3962 44.3072C37.5427 44.4537 37.625 44.6524 37.625 44.8596C37.625 45.0668 37.5427 45.2655 37.3962 45.412C37.2497 45.5586 37.051 45.6409 36.8438 45.6409Z" fill="#012842"/>
<g clip-path="url(#clip0_3005_3591)">
<path d="M33.2916 17.875C33.1112 17.8756 32.9354 17.932 32.7884 18.0364C32.6413 18.1408 32.5302 18.2882 32.4702 18.4583H30.6666V17.2917H32.4166C32.4939 17.2917 32.5681 17.2609 32.6228 17.2062C32.6775 17.1515 32.7082 17.0774 32.7082 17C32.7082 16.9226 32.6775 16.8485 32.6228 16.7938C32.5681 16.7391 32.4939 16.7083 32.4166 16.7083H30.6666V15.5417H32.7082C33.0299 15.5417 33.2916 15.28 33.2916 14.9583V14.3213C33.4617 14.2614 33.6091 14.1502 33.7135 14.0032C33.8179 13.8561 33.8743 13.6804 33.8749 13.5C33.8749 13.0176 33.4823 12.625 32.9999 12.625C32.5175 12.625 32.1249 13.0176 32.1249 13.5C32.1249 13.8797 32.3696 14.2006 32.7082 14.3213V14.9583H30.6666V14.6667C30.6666 14.0232 30.1433 13.5 29.4999 13.5H29.2082V11.4583H29.8452C29.9052 11.6284 30.0163 11.7758 30.1634 11.8803C30.3104 11.9847 30.4862 12.0411 30.6666 12.0417C31.149 12.0417 31.5416 11.6491 31.5416 11.1667C31.5416 10.6842 31.149 10.2917 30.6666 10.2917C30.4862 10.2922 30.3104 10.3486 30.1634 10.4531C30.0163 10.5575 29.9052 10.7049 29.8452 10.875H29.2082C28.8865 10.875 28.6249 11.1366 28.6249 11.4583V13.5H27.4582V11.75C27.4582 11.6726 27.4275 11.5985 27.3728 11.5438C27.3181 11.4891 27.2439 11.4583 27.1666 11.4583C27.0892 11.4583 27.015 11.4891 26.9603 11.5438C26.9056 11.5985 26.8749 11.6726 26.8749 11.75V13.5H25.7082V11.6963C25.8783 11.6364 26.0257 11.5252 26.1302 11.3782C26.2346 11.2311 26.291 11.0554 26.2916 10.875C26.2916 10.3926 25.899 10 25.4166 10C24.9341 10 24.5416 10.3926 24.5416 10.875C24.5416 11.2548 24.7863 11.5756 25.1249 11.6963V13.5H23.9582V11.75C23.9582 11.6726 23.9275 11.5985 23.8728 11.5438C23.8181 11.4891 23.7439 11.4583 23.6666 11.4583C23.5892 11.4583 23.515 11.4891 23.4603 11.5438C23.4056 11.5985 23.3749 11.6726 23.3749 11.75V13.5H22.2082V11.4583C22.2082 11.1366 21.9466 10.875 21.6249 10.875H20.9879C20.9279 10.7049 20.8168 10.5575 20.6698 10.4531C20.5227 10.3486 20.3469 10.2922 20.1666 10.2917C19.6841 10.2917 19.2916 10.6842 19.2916 11.1667C19.2916 11.6491 19.6841 12.0417 20.1666 12.0417C20.3469 12.0411 20.5227 11.9847 20.6698 11.8803C20.8168 11.7758 20.9279 11.6284 20.9879 11.4583H21.6249V13.5H21.3332C20.6898 13.5 20.1666 14.0232 20.1666 14.6667V14.9583H18.1249V14.3213C18.295 14.2614 18.4424 14.1502 18.5468 14.0032C18.6513 13.8561 18.7077 13.6804 18.7082 13.5C18.7082 13.0176 18.3156 12.625 17.8332 12.625C17.3508 12.625 16.9582 13.0176 16.9582 13.5C16.9582 13.8797 17.2029 14.2006 17.5416 14.3213V14.9583C17.5416 15.28 17.8032 15.5417 18.1249 15.5417H20.1666V16.7083H18.4166C18.3392 16.7083 18.265 16.7391 18.2103 16.7938C18.1556 16.8485 18.1249 16.9226 18.1249 17C18.1249 17.0774 18.1556 17.1515 18.2103 17.2062C18.265 17.2609 18.3392 17.2917 18.4166 17.2917H20.1666V18.4583H18.3629C18.3029 18.2882 18.1918 18.1408 18.0448 18.0364C17.8977 17.932 17.7219 17.8756 17.5416 17.875C17.0591 17.875 16.6666 18.2676 16.6666 18.75C16.6666 19.2324 17.0591 19.625 17.5416 19.625C17.7219 19.6244 17.8977 19.568 18.0448 19.4636C18.1918 19.3592 18.3029 19.2118 18.3629 19.0417H20.1666V20.2083H18.4166C18.3392 20.2083 18.265 20.2391 18.2103 20.2938C18.1556 20.3485 18.1249 20.4226 18.1249 20.5C18.1249 20.5774 18.1556 20.6515 18.2103 20.7062C18.265 20.7609 18.3392 20.7917 18.4166 20.7917H20.1666V21.9583H18.1249C17.8032 21.9583 17.5416 22.22 17.5416 22.5417V23.1787C17.3715 23.2386 17.2241 23.3498 17.1196 23.4968C17.0152 23.6439 16.9588 23.8196 16.9582 24C16.9582 24.4824 17.3508 24.875 17.8332 24.875C18.3156 24.875 18.7082 24.4824 18.7082 24C18.7077 23.8196 18.6513 23.6439 18.5468 23.4968C18.4424 23.3498 18.295 23.2386 18.1249 23.1787V22.5417H20.1666V22.8333C20.1666 23.4767 20.6898 24 21.3332 24H21.6249V26.0417H20.9879C20.9279 25.8716 20.8168 25.7242 20.6698 25.6197C20.5227 25.5153 20.3469 25.4589 20.1666 25.4583C19.6841 25.4583 19.2916 25.8509 19.2916 26.3333C19.2916 26.8158 19.6841 27.2083 20.1666 27.2083C20.3469 27.2078 20.5227 27.1514 20.6698 27.0469C20.8168 26.9425 20.9279 26.7951 20.9879 26.625H21.6249C21.9466 26.625 22.2082 26.3634 22.2082 26.0417V24H23.3749V25.75C23.3749 25.8274 23.4056 25.9015 23.4603 25.9562C23.515 26.0109 23.5892 26.0417 23.6666 26.0417C23.7439 26.0417 23.8181 26.0109 23.8728 25.9562C23.9275 25.9015 23.9582 25.8274 23.9582 25.75V24H25.1249V25.8037C24.9548 25.8636 24.8074 25.9748 24.703 26.1218C24.5985 26.2689 24.5421 26.4446 24.5416 26.625C24.5416 27.1074 24.9341 27.5 25.4166 27.5C25.899 27.5 26.2916 27.1074 26.2916 26.625C26.291 26.4446 26.2346 26.2689 26.1302 26.1218C26.0257 25.9748 25.8783 25.8636 25.7082 25.8037V24H26.8749V25.75C26.8749 25.8274 26.9056 25.9015 26.9603 25.9562C27.015 26.0109 27.0892 26.0417 27.1666 26.0417C27.2439 26.0417 27.3181 26.0109 27.3728 25.9562C27.4275 25.9015 27.4582 25.8274 27.4582 25.75V24H28.6249V26.0417C28.6249 26.3634 28.8865 26.625 29.2082 26.625H29.8452C29.9052 26.7951 30.0163 26.9425 30.1634 27.0469C30.3104 27.1514 30.4862 27.2078 30.6666 27.2083C31.149 27.2083 31.5416 26.8158 31.5416 26.3333C31.5416 25.8509 31.149 25.4583 30.6666 25.4583C30.4862 25.4589 30.3104 25.5153 30.1634 25.6197C30.0163 25.7242 29.9052 25.8716 29.8452 26.0417H29.2082V24H29.4999C30.1433 24 30.6666 23.4767 30.6666 22.8333V22.5417H32.7082V23.1787C32.5381 23.2386 32.3907 23.3498 32.2863 23.4968C32.1819 23.6439 32.1255 23.8196 32.1249 24C32.1249 24.4824 32.5175 24.875 32.9999 24.875C33.4823 24.875 33.8749 24.4824 33.8749 24C33.8743 23.8196 33.8179 23.6439 33.7135 23.4968C33.6091 23.3498 33.4617 23.2386 33.2916 23.1787V22.5417C33.2916 22.22 33.0299 21.9583 32.7082 21.9583H30.6666V20.7917H32.4166C32.4939 20.7917 32.5681 20.7609 32.6228 20.7062C32.6775 20.6515 32.7082 20.5774 32.7082 20.5C32.7082 20.4226 32.6775 20.3485 32.6228 20.2938C32.5681 20.2391 32.4939 20.2083 32.4166 20.2083H30.6666V19.0417H32.4702C32.5302 19.2118 32.6413 19.3592 32.7884 19.4636C32.9354 19.568 33.1112 19.6244 33.2916 19.625C33.774 19.625 34.1666 19.2324 34.1666 18.75C34.1666 18.2676 33.774 17.875 33.2916 17.875ZM32.9999 13.2083C33.0773 13.2083 33.1514 13.2391 33.2061 13.2938C33.2608 13.3485 33.2916 13.4226 33.2916 13.5C33.2916 13.5774 33.2608 13.6515 33.2061 13.7062C33.1514 13.7609 33.0773 13.7917 32.9999 13.7917C32.9225 13.7917 32.8484 13.7609 32.7937 13.7062C32.739 13.6515 32.7082 13.5774 32.7082 13.5C32.7082 13.4226 32.739 13.3485 32.7937 13.2938C32.8484 13.2391 32.9225 13.2083 32.9999 13.2083ZM30.6666 10.875C30.7439 10.875 30.8181 10.9057 30.8728 10.9604C30.9275 11.0151 30.9582 11.0893 30.9582 11.1667C30.9582 11.244 30.9275 11.3182 30.8728 11.3729C30.8181 11.4276 30.7439 11.4583 30.6666 11.4583C30.5892 11.4583 30.515 11.4276 30.4603 11.3729C30.4056 11.3182 30.3749 11.244 30.3749 11.1667C30.3749 11.0893 30.4056 11.0151 30.4603 10.9604C30.515 10.9057 30.5892 10.875 30.6666 10.875ZM25.4166 10.5833C25.4939 10.5833 25.5681 10.6141 25.6228 10.6688C25.6775 10.7235 25.7082 10.7976 25.7082 10.875C25.7082 10.9524 25.6775 11.0265 25.6228 11.0812C25.5681 11.1359 25.4939 11.1667 25.4166 11.1667C25.3392 11.1667 25.265 11.1359 25.2103 11.0812C25.1556 11.0265 25.1249 10.9524 25.1249 10.875C25.1249 10.7976 25.1556 10.7235 25.2103 10.6688C25.265 10.6141 25.3392 10.5833 25.4166 10.5833ZM20.1666 11.4583C20.0892 11.4583 20.015 11.4276 19.9603 11.3729C19.9056 11.3182 19.8749 11.244 19.8749 11.1667C19.8749 11.0893 19.9056 11.0151 19.9603 10.9604C20.015 10.9057 20.0892 10.875 20.1666 10.875C20.2439 10.875 20.3181 10.9057 20.3728 10.9604C20.4275 11.0151 20.4582 11.0893 20.4582 11.1667C20.4582 11.244 20.4275 11.3182 20.3728 11.3729C20.3181 11.4276 20.2439 11.4583 20.1666 11.4583ZM17.8332 13.2083C17.9106 13.2083 17.9848 13.2391 18.0395 13.2938C18.0942 13.3485 18.1249 13.4226 18.1249 13.5C18.1249 13.5774 18.0942 13.6515 18.0395 13.7062C17.9848 13.7609 17.9106 13.7917 17.8332 13.7917C17.7559 13.7917 17.6817 13.7609 17.627 13.7062C17.5723 13.6515 17.5416 13.5774 17.5416 13.5C17.5416 13.4226 17.5723 13.3485 17.627 13.2938C17.6817 13.2391 17.7559 13.2083 17.8332 13.2083ZM17.5416 19.0417C17.4642 19.0417 17.39 19.0109 17.3353 18.9562C17.2806 18.9015 17.2499 18.8274 17.2499 18.75C17.2499 18.6726 17.2806 18.5985 17.3353 18.5438C17.39 18.4891 17.4642 18.4583 17.5416 18.4583C17.6189 18.4583 17.6931 18.4891 17.7478 18.5438C17.8025 18.5985 17.8332 18.6726 17.8332 18.75C17.8332 18.8274 17.8025 18.9015 17.7478 18.9562C17.6931 19.0109 17.6189 19.0417 17.5416 19.0417ZM17.8332 24.2917C17.7559 24.2917 17.6817 24.2609 17.627 24.2062C17.5723 24.1515 17.5416 24.0774 17.5416 24C17.5416 23.9226 17.5723 23.8485 17.627 23.7938C17.6817 23.7391 17.7559 23.7083 17.8332 23.7083C17.9106 23.7083 17.9848 23.7391 18.0395 23.7938C18.0942 23.8485 18.1249 23.9226 18.1249 24C18.1249 24.0774 18.0942 24.1515 18.0395 24.2062C17.9848 24.2609 17.9106 24.2917 17.8332 24.2917ZM20.1666 26.625C20.0892 26.625 20.015 26.5943 19.9603 26.5396C19.9056 26.4849 19.8749 26.4107 19.8749 26.3333C19.8749 26.256 19.9056 26.1818 19.9603 26.1271C20.015 26.0724 20.0892 26.0417 20.1666 26.0417C20.2439 26.0417 20.3181 26.0724 20.3728 26.1271C20.4275 26.1818 20.4582 26.256 20.4582 26.3333C20.4582 26.4107 20.4275 26.4849 20.3728 26.5396C20.3181 26.5943 20.2439 26.625 20.1666 26.625ZM25.4166 26.9167C25.3392 26.9167 25.265 26.8859 25.2103 26.8312C25.1556 26.7765 25.1249 26.7024 25.1249 26.625C25.1249 26.5476 25.1556 26.4735 25.2103 26.4188C25.265 26.3641 25.3392 26.3333 25.4166 26.3333C25.4939 26.3333 25.5681 26.3641 25.6228 26.4188C25.6775 26.4735 25.7082 26.5476 25.7082 26.625C25.7082 26.7024 25.6775 26.7765 25.6228 26.8312C25.5681 26.8859 25.4939 26.9167 25.4166 26.9167ZM30.6666 26.0417C30.7439 26.0417 30.8181 26.0724 30.8728 26.1271C30.9275 26.1818 30.9582 26.256 30.9582 26.3333C30.9582 26.4107 30.9275 26.4849 30.8728 26.5396C30.8181 26.5943 30.7439 26.625 30.6666 26.625C30.5892 26.625 30.515 26.5943 30.4603 26.5396C30.4056 26.4849 30.3749 26.4107 30.3749 26.3333C30.3749 26.256 30.4056 26.1818 30.4603 26.1271C30.515 26.0724 30.5892 26.0417 30.6666 26.0417ZM32.9999 24.2917C32.9225 24.2917 32.8484 24.2609 32.7937 24.2062C32.739 24.1515 32.7082 24.0774 32.7082 24C32.7082 23.9226 32.739 23.8485 32.7937 23.7938C32.8484 23.7391 32.9225 23.7083 32.9999 23.7083C33.0773 23.7083 33.1514 23.7391 33.2061 23.7938C33.2608 23.8485 33.2916 23.9226 33.2916 24C33.2916 24.0774 33.2608 24.1515 33.2061 24.2062C33.1514 24.2609 33.0773 24.2917 32.9999 24.2917ZM30.0832 22.8333C30.0832 23.155 29.8216 23.4167 29.4999 23.4167H21.3332C21.0115 23.4167 20.7499 23.155 20.7499 22.8333V14.6667C20.7499 14.345 21.0115 14.0833 21.3332 14.0833H29.4999C29.8216 14.0833 30.0832 14.345 30.0832 14.6667V22.8333ZM33.2916 19.0417C33.2142 19.0417 33.14 19.0109 33.0853 18.9562C33.0306 18.9015 32.9999 18.8274 32.9999 18.75C32.9999 18.6726 33.0306 18.5985 33.0853 18.5438C33.14 18.4891 33.2142 18.4583 33.2916 18.4583C33.3689 18.4583 33.4431 18.4891 33.4978 18.5438C33.5525 18.5985 33.5832 18.6726 33.5832 18.75C33.5832 18.8274 33.5525 18.9015 33.4978 18.9562C33.4431 19.0109 33.3689 19.0417 33.2916 19.0417Z" fill="#005BAA"/>
<path d="M24.1076 16.4779C24.0612 16.2702 23.8801 16.125 23.6669 16.125C23.4537 16.125 23.2725 16.2702 23.2259 16.4785L22.2152 21.02C22.1986 21.0956 22.2125 21.1746 22.2541 21.2399C22.2957 21.3051 22.3614 21.3512 22.4369 21.368C22.5124 21.3844 22.5913 21.3703 22.6565 21.3287C22.7217 21.2872 22.7678 21.2217 22.7849 21.1463L23.1235 19.6247H24.21L24.5486 21.1463C24.5653 21.2219 24.6114 21.2877 24.6767 21.3293C24.742 21.3709 24.8211 21.3849 24.8967 21.3681C24.9723 21.3514 25.0381 21.3053 25.0797 21.24C25.1213 21.1748 25.1352 21.0956 25.1185 21.02L24.1076 16.4779ZM23.2536 19.0417L23.6672 17.1832L24.0807 19.0417H23.2536ZM27.7502 16.7083C27.8276 16.7083 27.9017 16.6776 27.9564 16.6229C28.0111 16.5682 28.0419 16.494 28.0419 16.4167C28.0419 16.3393 28.0111 16.2651 27.9564 16.2104C27.9017 16.1557 27.8276 16.125 27.7502 16.125H26.0002C25.9229 16.125 25.8487 16.1557 25.794 16.2104C25.7393 16.2651 25.7085 16.3393 25.7085 16.4167C25.7085 16.494 25.7393 16.5682 25.794 16.6229C25.8487 16.6776 25.9229 16.7083 26.0002 16.7083H26.5835V20.7917H26.0002C25.9229 20.7917 25.8487 20.8224 25.794 20.8771C25.7393 20.9318 25.7085 21.006 25.7085 21.0833C25.7085 21.1607 25.7393 21.2349 25.794 21.2896C25.8487 21.3443 25.9229 21.375 26.0002 21.375H27.7502C27.8276 21.375 27.9017 21.3443 27.9564 21.2896C28.0111 21.2349 28.0419 21.1607 28.0419 21.0833C28.0419 21.006 28.0111 20.9318 27.9564 20.8771C27.9017 20.8224 27.8276 20.7917 27.7502 20.7917H27.1669V16.7083H27.7502Z" fill="#005BAA"/>
</g>
<defs>
<clipPath id="clip0_3005_3591">
<rect width="17.5" height="17.5" fill="white" transform="translate(16.6666 10)"/>
</clipPath>
</defs>
</svg>
