<svg width="138" height="43" viewBox="0 0 138 43" fill="none" xmlns="http://www.w3.org/2000/svg">
<path d="M32.1556 15.5469C32.1791 17.6108 30.5399 19.2431 29.0104 19.3999C27.993 19.5041 26.9509 19.5738 25.9773 19.8595C24.6306 20.2546 23.3936 20.9225 22.4256 22.0244C21.3039 23.3022 20.6764 24.7133 20.5667 26.4894C20.4591 28.2386 19.8675 29.9514 17.9727 30.5797C15.0652 31.545 11.8124 30.1555 11.8494 26.6429C11.8651 25.1923 12.8746 23.647 14.4871 23.0391C15.352 22.7127 16.181 22.7535 17.0304 22.6321C19.5761 22.2703 21.5874 21.0417 22.8243 18.6761C23.4171 17.5432 23.7567 16.3383 23.7039 15.0315C23.6558 13.8277 23.1314 12.422 22.4311 11.4888C21.249 9.91352 20.0669 9.03728 18.2798 8.52934C16.7828 8.10303 15.2209 8.13094 13.6556 8.64961C12.3301 9.08882 11.3407 9.89094 10.4097 10.8606C9.42139 11.8916 8.89252 13.1211 8.81072 14.5568C8.73229 15.9345 8.41744 17.2597 7.44375 18.254C6.44655 19.2731 5.23083 19.6543 3.7507 19.4556C2.44536 19.2807 1.54675 18.69 0.774753 17.672C-0.384926 16.143 -0.240387 14.0006 1.19268 12.6852C2.19214 11.767 3.27114 11.3814 4.72215 11.2569C7.48856 11.0185 10.832 8.97714 11.4741 6.10676C11.6141 5.47855 11.7643 4.84176 11.8057 4.20282C11.9189 2.43206 12.9509 0.779409 14.7536 0.255373C17.463 -0.531754 19.5335 0.507726 20.3212 3.30079C20.4546 3.77435 20.5723 4.26404 20.6081 4.7537C20.7806 7.14946 21.9437 8.86438 23.9426 10.0853C25.2245 10.8682 26.5656 11.1334 28.0613 11.287C30.0502 11.4899 32.067 12.9933 32.1556 15.5469Z" fill="white"/>
<path d="M0.0078125 26.5077C0.0078125 24.4438 1.6661 22.8286 3.19778 22.6879C4.21628 22.5946 5.25942 22.5367 6.23646 22.2607C7.58775 21.8794 8.83258 21.2253 9.81297 20.1333C10.9491 18.8683 11.5934 17.4638 11.7234 15.6886C11.8511 13.9404 12.4629 12.2341 14.3642 11.6263C17.2832 10.692 20.5201 12.117 20.4418 15.6285C20.4092 17.0792 19.3817 18.6138 17.7627 19.2044C16.8943 19.5211 16.0651 19.4718 15.2147 19.5836C12.6646 19.9185 10.6388 21.1255 9.37492 23.4773C8.76872 24.6038 8.41578 25.8042 8.45275 27.1122C8.48748 28.316 8.96816 29.3565 9.51381 30.3788C10.4516 32.1379 12.0191 33.144 13.8007 33.6723C15.2931 34.1148 16.8552 34.103 18.4261 33.6014C19.7572 33.1762 20.7554 32.3859 21.6978 31.4248C22.6982 30.4046 23.2418 29.1815 23.3393 27.7457C23.4333 26.3691 23.764 25.0482 24.7488 24.0636C25.7582 23.0552 26.9774 22.6869 28.4563 22.9017C29.7594 23.0907 30.6514 23.6909 31.4111 24.7175C32.5529 26.2585 32.3826 28.3997 30.9349 29.699C29.9242 30.6065 28.8419 30.9802 27.3886 31.0897C24.6199 31.2981 21.2529 33.304 20.5774 36.1669C20.4294 36.794 20.2725 37.4286 20.2243 38.0676C20.09 39.8374 19.0401 41.4792 17.2305 41.9839C14.5122 42.742 12.4539 41.68 11.6987 38.8793C11.571 38.4048 11.4589 37.9129 11.4287 37.4232C11.2831 35.0265 10.1413 33.2987 8.15694 32.0563C6.8841 31.2594 5.54626 30.9802 4.05157 30.8105C2.06498 30.5872 0.0660766 29.0623 0.0078125 26.5077Z" fill="white"/>
<path d="M58.0031 23.4656V27.1626H40.8719V24.2219L51.621 11.2547H41.0959V7.55786H57.5832V10.4986L46.8623 23.4656H58.0031ZM73.8158 22.9616H64.7183L62.9828 27.1626H58.3362L67.0697 7.55786H71.5484L80.3099 27.1626H75.5513L73.8158 22.9616ZM72.3882 19.5168L69.281 12.0109L66.1739 19.5168H72.3882ZM90.8244 7.55786C92.5596 7.55786 94.0622 7.84726 95.331 8.42607C96.6189 9.00487 97.6079 9.82645 98.2986 10.8907C98.9885 11.9549 99.3344 13.2152 99.3344 14.6716C99.3344 16.1092 98.9885 17.3695 98.2986 18.4525C97.6079 19.5168 96.6189 20.3382 95.331 20.917C94.0622 21.4772 92.5596 21.7572 90.8244 21.7572H86.8775V27.1626H82.3427V7.55786H90.8244ZM90.5725 18.0604C91.9348 18.0604 92.9706 17.771 93.6797 17.1922C94.3888 16.5948 94.7429 15.7546 94.7429 14.6716C94.7429 13.57 94.3888 12.7298 93.6797 12.151C92.9706 11.5535 91.9348 11.2547 90.5725 11.2547H86.8775V18.0604H90.5725ZM106.083 11.2547H99.8132V7.55786H116.888V11.2547H110.618V27.1626H106.083V11.2547ZM131.249 22.9616H122.151L120.416 27.1626H115.769L124.502 7.55786H128.981L137.743 27.1626H132.984L131.249 22.9616ZM129.821 19.5168L126.714 12.0109L123.607 19.5168H129.821Z" fill="white"/>
<path d="M41.7983 37.5489H39.8447V36.3972H45.1646V37.5489H43.2111V42.5052H41.7983V37.5489ZM52.9192 41.3708V42.5052H48.1923V36.3972H52.8058V37.5315H49.5964V38.8578H52.4308V39.9573H49.5964V41.3708H52.9192ZM59.2153 42.6099C58.5932 42.6099 58.0293 42.4761 57.5234 42.2085C57.0234 41.9351 56.628 41.5599 56.3374 41.0828C56.0524 40.6 55.9101 40.0562 55.9101 39.4512C55.9101 38.8461 56.0524 38.3051 56.3374 37.8281C56.628 37.3453 57.0234 36.9701 57.5234 36.7026C58.0293 36.4291 58.5961 36.2925 59.2241 36.2925C59.7531 36.2925 60.2298 36.3855 60.6543 36.5717C61.0845 36.7579 61.445 37.0254 61.7357 37.3744L60.8287 38.2121C60.4159 37.7352 59.9043 37.4966 59.2939 37.4966C58.9159 37.4966 58.5787 37.5809 58.2822 37.7497C57.9857 37.9125 57.7531 38.1423 57.5845 38.439C57.4216 38.7356 57.3403 39.073 57.3403 39.4512C57.3403 39.8293 57.4216 40.1666 57.5845 40.4634C57.7531 40.76 57.9857 40.9926 58.2822 41.1614C58.5787 41.3242 58.9159 41.4057 59.2939 41.4057C59.9043 41.4057 60.4159 41.1644 60.8287 40.6815L61.7357 41.5192C61.445 41.8739 61.0845 42.1444 60.6543 42.3307C60.2241 42.5168 59.7444 42.6099 59.2153 42.6099ZM70.5562 36.3972V42.5052H69.1434V40.0009H66.37V42.5052H64.9573V36.3972H66.37V38.8055H69.1434V36.3972H70.5562ZM79.8671 36.3972V42.5052H78.7072L75.6635 38.7968V42.5052H74.2681V36.3972H75.4367L78.4718 40.1056V36.3972H79.8671ZM86.5353 42.6099C85.9017 42.6099 85.3289 42.4732 84.8173 42.1998C84.3115 41.9263 83.9133 41.5511 83.6225 41.0741C83.3377 40.5912 83.1952 40.0503 83.1952 39.4512C83.1952 38.852 83.3377 38.3139 83.6225 37.837C83.9133 37.3541 84.3115 36.976 84.8173 36.7026C85.3289 36.4291 85.9017 36.2925 86.5353 36.2925C87.1691 36.2925 87.7389 36.4291 88.2447 36.7026C88.7505 36.976 89.1488 37.3541 89.4396 37.837C89.7303 38.3139 89.8756 38.852 89.8756 39.4512C89.8756 40.0503 89.7303 40.5912 89.4396 41.0741C89.1488 41.5511 88.7505 41.9263 88.2447 42.1998C87.7389 42.4732 87.1691 42.6099 86.5353 42.6099ZM86.5353 41.4057C86.8959 41.4057 87.2214 41.3242 87.5122 41.1614C87.8029 40.9926 88.0297 40.76 88.1924 40.4634C88.3611 40.1666 88.4453 39.8293 88.4453 39.4512C88.4453 39.073 88.3611 38.7356 88.1924 38.439C88.0297 38.1423 87.8029 37.9125 87.5122 37.7497C87.2214 37.5809 86.8959 37.4966 86.5353 37.4966C86.1748 37.4966 85.8493 37.5809 85.5586 37.7497C85.2679 37.9125 85.0383 38.1423 84.8697 38.439C84.7069 38.7356 84.6255 39.073 84.6255 39.4512C84.6255 39.8293 84.7069 40.1666 84.8697 40.4634C85.0383 40.76 85.2679 40.9926 85.5586 41.1614C85.8493 41.3242 86.1748 41.4057 86.5353 41.4057ZM93.2048 36.3972H94.6176V41.3533H97.6788V42.5052H93.2048V36.3972ZM103.59 42.6099C102.956 42.6099 102.383 42.4732 101.872 42.1998C101.366 41.9263 100.968 41.5511 100.677 41.0741C100.392 40.5912 100.25 40.0503 100.25 39.4512C100.25 38.852 100.392 38.3139 100.677 37.837C100.968 37.3541 101.366 36.976 101.872 36.7026C102.383 36.4291 102.956 36.2925 103.59 36.2925C104.223 36.2925 104.793 36.4291 105.299 36.7026C105.805 36.976 106.203 37.3541 106.494 37.837C106.785 38.3139 106.93 38.852 106.93 39.4512C106.93 40.0503 106.785 40.5912 106.494 41.0741C106.203 41.5511 105.805 41.9263 105.299 42.1998C104.793 42.4732 104.223 42.6099 103.59 42.6099ZM103.59 41.4057C103.951 41.4057 104.276 41.3242 104.566 41.1614C104.857 40.9926 105.084 40.76 105.247 40.4634C105.416 40.1666 105.5 39.8293 105.5 39.4512C105.5 39.073 105.416 38.7356 105.247 38.439C105.084 38.1423 104.857 37.9125 104.566 37.7497C104.276 37.5809 103.951 37.4966 103.59 37.4966C103.23 37.4966 102.904 37.5809 102.613 37.7497C102.323 37.9125 102.093 38.1423 101.924 38.439C101.761 38.7356 101.68 39.073 101.68 39.4512C101.68 39.8293 101.761 40.1666 101.924 40.4634C102.093 40.76 102.323 40.9926 102.613 41.1614C102.904 41.3242 103.23 41.4057 103.59 41.4057ZM114.384 39.3552H115.675V41.8333C115.344 42.0834 114.96 42.2753 114.524 42.4091C114.088 42.5431 113.649 42.6099 113.207 42.6099C112.573 42.6099 112.004 42.4761 111.498 42.2085C110.992 41.9351 110.594 41.5599 110.303 41.0828C110.018 40.6 109.875 40.0562 109.875 39.4512C109.875 38.8461 110.018 38.3051 110.303 37.8281C110.594 37.3453 110.994 36.9701 111.506 36.7026C112.018 36.4291 112.593 36.2925 113.233 36.2925C113.769 36.2925 114.254 36.3827 114.69 36.563C115.125 36.7432 115.492 37.005 115.789 37.3483L114.881 38.1859C114.446 37.7264 113.919 37.4966 113.303 37.4966C112.914 37.4966 112.568 37.5781 112.265 37.7409C111.963 37.9038 111.727 38.1336 111.559 38.4302C111.391 38.7269 111.306 39.0672 111.306 39.4512C111.306 39.8293 111.391 40.1666 111.559 40.4634C111.727 40.76 111.96 40.9926 112.257 41.1614C112.559 41.3242 112.902 41.4057 113.286 41.4057C113.692 41.4057 114.059 41.3185 114.384 41.144V39.3552ZM119.255 36.3972H120.668V42.5052H119.255V36.3972ZM129.111 41.3708V42.5052H124.384V36.3972H128.998V37.5315H125.788V38.8578H128.623V39.9573H125.788V41.3708H129.111ZM134.508 42.6099C134.026 42.6099 133.558 42.5458 133.105 42.4179C132.656 42.284 132.297 42.1125 132.023 41.903L132.503 40.8385C132.765 41.0305 133.076 41.1846 133.436 41.301C133.797 41.4174 134.157 41.4755 134.518 41.4755C134.919 41.4755 135.215 41.4174 135.407 41.301C135.598 41.1789 135.695 41.0189 135.695 40.8211C135.695 40.6757 135.637 40.5564 135.52 40.4634C135.41 40.3644 135.264 40.2859 135.085 40.2278C134.909 40.1696 134.672 40.1056 134.369 40.0358C133.904 39.9253 133.523 39.8146 133.227 39.7042C132.93 39.5937 132.675 39.4163 132.459 39.172C132.25 38.9276 132.145 38.6018 132.145 38.1946C132.145 37.8399 132.241 37.5198 132.433 37.2348C132.625 36.944 132.912 36.7142 133.297 36.5455C133.686 36.3767 134.16 36.2925 134.718 36.2925C135.108 36.2925 135.488 36.339 135.861 36.4321C136.232 36.5251 136.558 36.659 136.837 36.8335L136.401 37.9067C135.837 37.5868 135.273 37.4268 134.709 37.4268C134.314 37.4268 134.02 37.4908 133.829 37.6188C133.642 37.7467 133.549 37.9154 133.549 38.1249C133.549 38.3342 133.657 38.4914 133.872 38.596C134.093 38.695 134.427 38.7938 134.874 38.8928C135.34 39.0032 135.721 39.1138 136.018 39.2243C136.314 39.3348 136.567 39.5093 136.776 39.7478C136.991 39.9864 137.099 40.3093 137.099 40.7163C137.099 41.0654 137 41.3853 136.802 41.6762C136.61 41.9612 136.319 42.188 135.93 42.3568C135.54 42.5255 135.067 42.6099 134.508 42.6099Z" fill="white"/>
</svg>
