<svg width="50" height="50" viewBox="0 0 50 50" fill="none" xmlns="http://www.w3.org/2000/svg">
<g clip-path="url(#clip0_3005_3606)">
<path d="M47.2969 5.92114C47.5994 5.92114 47.8895 6.04131 48.1034 6.25522C48.3173 6.46913 48.4375 6.75925 48.4375 7.06177V36.2649C48.4375 36.5674 48.3173 36.8575 48.1034 37.0714C47.8895 37.2853 47.5994 37.4055 47.2969 37.4055H2.70309C2.40058 37.4055 2.11048 37.2853 1.89657 37.0714C1.68266 36.8575 1.5625 36.5674 1.5625 36.2649V7.06177C1.5625 6.75925 1.68266 6.46913 1.89657 6.25522C2.11048 6.04131 2.40058 5.92114 2.70309 5.92114H47.2969ZM47.2969 4.35864H2.70309C1.98618 4.35864 1.29867 4.64344 0.79174 5.15037C0.284806 5.6573 0 6.34485 0 7.06177V36.2649C0.00410124 36.9805 0.290175 37.6657 0.796223 38.1718C1.30227 38.6778 1.98745 38.9639 2.70309 38.968H47.2969C48.0126 38.9639 48.6977 38.6778 49.2038 38.1718C49.7098 37.6657 49.9959 36.9805 50 36.2649V7.06177C50 6.34485 49.7152 5.6573 49.2083 5.15037C48.7013 4.64344 48.0138 4.35864 47.2969 4.35864Z" fill="#012842"/>
<path d="M50 31.4683H0.78125V33.0308H50V31.4683Z" fill="#012842"/>
<path d="M30.5937 38.6084H29.0312V44.8584H30.5937V38.6084Z" fill="#012842"/>
<path d="M20.9688 38.6084H19.4063V44.8584H20.9688V38.6084Z" fill="#012842"/>
<path d="M36.8439 45.6396H13.1563C12.9491 45.6396 12.7505 45.5573 12.604 45.4108C12.4575 45.2643 12.3751 45.0656 12.3751 44.8584C12.3751 44.6512 12.4575 44.4525 12.604 44.306C12.7505 44.1595 12.9491 44.0771 13.1563 44.0771H36.8439C37.0511 44.0771 37.2498 44.1595 37.3963 44.306C37.5428 44.4525 37.6251 44.6512 37.6251 44.8584C37.6251 45.0656 37.5428 45.2643 37.3963 45.4108C37.2498 45.5573 37.0511 45.6396 36.8439 45.6396Z" fill="#012842"/>
<g clip-path="url(#clip1_3005_3606)">
<path d="M33.8145 25.7663H31.6587C31.4905 25.7663 31.3292 25.6995 31.2103 25.5806C31.0914 25.4617 31.0246 25.3004 31.0246 25.1322C31.0246 24.9641 31.0914 24.8028 31.2103 24.6839C31.3292 24.565 31.4905 24.4982 31.6587 24.4982H33.713V10.7896H31.6587C31.4905 10.7896 31.3292 10.7228 31.2103 10.6039C31.0914 10.485 31.0246 10.3237 31.0246 10.1556C31.0246 9.98739 31.0914 9.82611 31.2103 9.7072C31.3292 9.58829 31.4905 9.52148 31.6587 9.52148H33.8145C34.1239 9.52148 34.4207 9.6444 34.6394 9.8632C34.8582 10.082 34.9812 10.3787 34.9812 10.6882V24.6376C34.9713 24.9404 34.844 25.2275 34.6263 25.4381C34.4086 25.6488 34.1175 25.7664 33.8145 25.7663Z" fill="#0066B3"/>
</g>
<g clip-path="url(#clip2_3005_3606)">
<path d="M17.8615 25.7848H15.7056C15.3962 25.7848 15.0995 25.6619 14.8807 25.4431C14.6619 25.2243 14.539 24.9275 14.539 24.6181V10.6686C14.539 10.3592 14.6619 10.0625 14.8807 9.84367C15.0995 9.62487 15.3962 9.50195 15.7056 9.50195H17.8615C18.0296 9.50195 18.1909 9.56876 18.3099 9.68767C18.4288 9.80658 18.4955 9.96786 18.4955 10.136C18.4955 10.3042 18.4288 10.4655 18.3099 10.5844C18.1909 10.7033 18.0296 10.7701 17.8615 10.7701H15.8071V24.5167H17.8615C18.0296 24.5167 18.1909 24.5835 18.3099 24.7024C18.4288 24.8213 18.4955 24.9826 18.4955 25.1507C18.4955 25.3189 18.4288 25.4802 18.3099 25.5991C18.1909 25.718 18.0296 25.7848 17.8615 25.7848Z" fill="#0066B3"/>
</g>
<g clip-path="url(#clip3_3005_3606)">
<path d="M30.4818 17.8008C30.4357 17.7161 30.3726 17.6419 30.2964 17.5828C30.2202 17.5238 30.1326 17.4811 30.039 17.4577L29.4634 17.3138C29.442 16.9887 29.3749 16.6682 29.2642 16.3618L29.7402 16.0076C29.8917 15.89 29.9942 15.7204 30.028 15.5316C30.0505 15.3407 30.0034 15.148 29.8951 14.9892L28.9321 13.7272C28.8777 13.6482 28.8072 13.5817 28.7251 13.532C28.643 13.4824 28.5513 13.4508 28.4561 13.4394C28.3614 13.4243 28.2646 13.4283 28.1715 13.4511C28.0783 13.4739 27.9907 13.5151 27.9137 13.5723L27.4377 13.9376C27.1322 13.7202 26.7965 13.5487 26.4414 13.4284V12.8417C26.4415 12.6498 26.366 12.4656 26.2314 12.3289C26.0968 12.1922 25.9138 12.114 25.7219 12.1111H24.1279C23.9341 12.1111 23.7483 12.1881 23.6113 12.3251C23.4743 12.4621 23.3973 12.6479 23.3973 12.8417V13.4284C23.0894 13.5362 22.7957 13.6812 22.5228 13.8601L22.0579 13.4726C21.9851 13.4153 21.9016 13.373 21.8123 13.3483C21.7229 13.3236 21.6296 13.3169 21.5376 13.3287C21.4411 13.3324 21.3465 13.3571 21.2605 13.401C21.1744 13.445 21.099 13.5072 21.0395 13.5833L20.0433 14.8231C19.9828 14.8987 19.9379 14.9856 19.9113 15.0788C19.8847 15.1719 19.8769 15.2694 19.8883 15.3655C19.8981 15.4603 19.9267 15.5521 19.9723 15.6357C20.0179 15.7193 20.0796 15.793 20.154 15.8526L20.6189 16.2289C20.5052 16.5325 20.4272 16.8483 20.3864 17.1699L19.8108 17.2916C19.6251 17.3365 19.4639 17.4514 19.3608 17.6122C19.2577 17.7731 19.2206 17.9675 19.2573 18.155L19.6005 19.7158C19.6201 19.8066 19.6576 19.8925 19.7108 19.9685C19.764 20.0445 19.8319 20.1092 19.9104 20.1586C19.991 20.2121 20.0817 20.2486 20.1769 20.2657C20.2721 20.2828 20.3697 20.2803 20.4639 20.2583L21.0395 20.1365C21.2053 20.4189 21.4062 20.6793 21.6373 20.9114L21.3827 21.4316C21.3423 21.5163 21.3214 21.609 21.3214 21.7028C21.3214 21.7967 21.3423 21.8893 21.3827 21.974C21.4073 22.0688 21.4529 22.1567 21.5162 22.2315C21.5794 22.3062 21.6586 22.3658 21.748 22.4057L23.1649 23.1142C23.2515 23.1547 23.346 23.1757 23.4416 23.1757C23.5372 23.1757 23.6317 23.1547 23.7183 23.1142C23.8101 23.0861 23.8949 23.0391 23.9674 22.9761C24.0398 22.9132 24.0983 22.8358 24.139 22.7489L24.4047 22.2176C24.5926 22.231 24.7813 22.231 24.9692 22.2176C25.1055 22.2286 25.2425 22.2286 25.3788 22.2176L25.6223 22.76C25.6622 22.8499 25.7201 22.9306 25.7925 22.9973C25.8648 23.0639 25.9501 23.115 26.043 23.1474C26.1237 23.1589 26.2057 23.1589 26.2864 23.1474C26.3908 23.1454 26.4932 23.1189 26.5853 23.0699L28.0355 22.4057C28.2053 22.3232 28.3391 22.1815 28.4118 22.0072C28.4844 21.8299 28.4844 21.6311 28.4118 21.4538L28.1019 21.0553C28.3322 20.8318 28.5364 20.583 28.7107 20.3136L29.2863 20.4575C29.3784 20.4871 29.4761 20.4956 29.5719 20.4821C29.6677 20.4687 29.7593 20.4338 29.8398 20.38C29.9224 20.3301 29.9942 20.2642 30.0512 20.1863C30.1082 20.1084 30.1492 20.02 30.1719 19.9262L30.5704 18.3875C30.5955 18.2887 30.6006 18.186 30.5854 18.0852C30.5702 17.9845 30.535 17.8878 30.4818 17.8008ZM29.3749 19.5719L28.3233 19.2952L28.2679 19.3948C28.1865 19.5677 28.0863 19.7311 27.969 19.8819C27.8612 20.0568 27.7309 20.2168 27.5816 20.3579C27.4573 20.4894 27.3201 20.608 27.172 20.7121L27.0835 20.7785L27.5263 21.8191L26.2864 22.3504L25.8326 21.3541H25.7219L25.1574 21.4316H24.947H24.5486C24.368 21.4292 24.1888 21.3993 24.0172 21.3431H23.9065L23.3862 22.3283L22.1797 21.7084L22.6667 20.7342L22.5782 20.6568C22.4345 20.5392 22.3012 20.4096 22.1797 20.2693C22.04 20.1293 21.9174 19.9732 21.8144 19.8044C21.7119 19.65 21.623 19.4871 21.5487 19.3173V19.2177L20.4417 19.417L20.1872 18.0997L21.2941 17.8672V17.7344C21.2758 17.5504 21.2758 17.365 21.2941 17.1809C21.3211 16.9808 21.3694 16.7841 21.438 16.5942C21.487 16.413 21.5576 16.2383 21.6484 16.074V15.9743L20.796 15.2438L21.6705 14.2032L22.5118 14.8895L22.6003 14.8231C22.7331 14.7235 22.8992 14.6128 23.0652 14.5132C23.2372 14.4005 23.4233 14.3112 23.6187 14.2475C23.791 14.1777 23.9687 14.1221 24.15 14.0815H24.2607V12.9745H25.6112V14.0815H25.7219C25.9063 14.1288 26.0875 14.1879 26.2643 14.2586C26.4905 14.331 26.7036 14.4394 26.8953 14.5796C27.0604 14.6754 27.2161 14.7865 27.3602 14.9117L27.4377 14.9781L28.3454 14.325L29.1313 15.4319L28.2679 16.0961V16.2068C28.357 16.3707 28.424 16.5456 28.4671 16.7271C28.5272 16.9175 28.5644 17.1145 28.5778 17.3138C28.5884 17.4575 28.5884 17.6018 28.5778 17.7455C28.5849 17.7746 28.5849 17.8049 28.5778 17.834V17.9669L29.6848 18.2768L29.3749 19.5719Z" fill="#0066B3"/>
<path d="M24.9251 15.5208C24.4872 15.5208 24.0592 15.6506 23.6951 15.8939C23.331 16.1371 23.0473 16.4829 22.8797 16.8874C22.7121 17.292 22.6683 17.7371 22.7537 18.1666C22.8391 18.596 23.05 18.9905 23.3596 19.3001C23.6693 19.6097 24.0637 19.8206 24.4932 19.906C24.9226 19.9914 25.3678 19.9476 25.7723 19.78C26.1768 19.6125 26.5226 19.3287 26.7659 18.9646C27.0092 18.6006 27.139 18.1725 27.139 17.7347C27.139 17.1475 26.9058 16.5844 26.4906 16.1692C26.0754 15.754 25.5123 15.5208 24.9251 15.5208ZM24.9251 19.2622C24.6225 19.2644 24.3261 19.1767 24.0734 19.0102C23.8207 18.8437 23.6232 18.6059 23.5059 18.327C23.3886 18.048 23.3568 17.7405 23.4145 17.4435C23.4721 17.1464 23.6167 16.8732 23.8299 16.6585C24.0431 16.4437 24.3153 16.2971 24.6119 16.2373C24.9085 16.1774 25.2163 16.207 25.496 16.3223C25.7758 16.4376 26.015 16.6334 26.1834 16.8848C26.3517 17.1363 26.4416 17.4321 26.4416 17.7347C26.4416 18.1379 26.2822 18.5248 25.9981 18.8109C25.714 19.0971 25.3283 19.2593 24.9251 19.2622Z" fill="#0066B3"/>
</g>
</g>
<defs>
<clipPath id="clip0_3005_3606">
<rect width="50" height="50" fill="white"/>
</clipPath>
<clipPath id="clip1_3005_3606">
<path d="M31.0246 9.52148H33.9667C34.527 9.52148 34.9812 9.97569 34.9812 10.536V24.7518C34.9812 25.3121 34.527 25.7663 33.9667 25.7663H31.0246V9.52148Z" fill="white"/>
</clipPath>
<clipPath id="clip2_3005_3606">
<path d="M14.539 10.5165C14.539 9.95616 14.9932 9.50195 15.5535 9.50195H18.4955V25.7848H15.5535C14.9932 25.7848 14.539 25.3306 14.539 24.7703V10.5165Z" fill="white"/>
</clipPath>
<clipPath id="clip3_3005_3606">
<rect width="11.3504" height="11.0646" fill="white" transform="translate(19.2435 12.1111)"/>
</clipPath>
</defs>
</svg>
