<svg width="50" height="50" viewBox="0 0 50 50" fill="none" xmlns="http://www.w3.org/2000/svg">
<path d="M47.2969 5.92114C47.5994 5.92114 47.8895 6.04131 48.1034 6.25522C48.3173 6.46913 48.4375 6.75925 48.4375 7.06177V36.2649C48.4375 36.5674 48.3173 36.8575 48.1034 37.0714C47.8895 37.2853 47.5994 37.4055 47.2969 37.4055H2.70312C2.40061 37.4055 2.11049 37.2853 1.89658 37.0714C1.68268 36.8575 1.5625 36.5674 1.5625 36.2649V7.06177C1.5625 6.75925 1.68268 6.46913 1.89658 6.25522C2.11049 6.04131 2.40061 5.92114 2.70312 5.92114H47.2969ZM47.2969 4.35864H2.70312C1.98621 4.35864 1.29866 4.64344 0.791728 5.15037C0.284794 5.65731 0 6.34485 0 7.06177V36.2649C0.00410124 36.9805 0.290211 37.6657 0.796258 38.1718C1.30231 38.6778 1.98748 38.9639 2.70312 38.968H47.2969C48.0125 38.9639 48.6977 38.6778 49.2037 38.1718C49.7098 37.6657 49.9959 36.9805 50 36.2649V7.06177C50 6.34485 49.7152 5.65731 49.2083 5.15037C48.7013 4.64344 48.0138 4.35864 47.2969 4.35864Z" fill="#012842"/>
<path d="M50 31.468H0.78125V33.0305H50V31.468Z" fill="#012842"/>
<path d="M30.5937 38.6084H29.0312V44.8584H30.5937V38.6084Z" fill="#012842"/>
<path d="M20.9688 38.6084H19.4063V44.8584H20.9688V38.6084Z" fill="#012842"/>
<path d="M36.8438 45.6396H13.1563C12.9491 45.6396 12.7504 45.5573 12.6039 45.4108C12.4574 45.2643 12.3751 45.0656 12.3751 44.8584C12.3751 44.6512 12.4574 44.4525 12.6039 44.306C12.7504 44.1595 12.9491 44.0771 13.1563 44.0771H36.8438C37.051 44.0771 37.2498 44.1595 37.3963 44.306C37.5428 44.4525 37.6251 44.6512 37.6251 44.8584C37.6251 45.0656 37.5428 45.2643 37.3963 45.4108C37.2498 45.5573 37.051 45.6396 36.8438 45.6396Z" fill="#012842"/>
<g clip-path="url(#clip0_3005_3551)">
<path d="M41.5419 27.547H33.6082C33.3977 27.547 33.1959 27.4634 33.0472 27.3146C32.8984 27.1658 32.8148 26.964 32.8148 26.7536C32.8148 26.5432 32.8984 26.3414 33.0472 26.1926C33.1959 26.0438 33.3977 25.9602 33.6082 25.9602H41.5419C41.7523 25.9602 41.9541 26.0438 42.1029 26.1926C42.2517 26.3414 42.3353 26.5432 42.3353 26.7536C42.3353 26.964 42.2517 27.1658 42.1029 27.3146C41.9541 27.4634 41.7523 27.547 41.5419 27.547Z" fill="#0066B3"/>
</g>
<g clip-path="url(#clip1_3005_3551)">
<path d="M33.878 14.6158H28.3244C28.1139 14.6158 27.9121 14.5322 27.7633 14.3834C27.6146 14.2346 27.531 14.0328 27.531 13.8224C27.535 13.6133 27.6199 13.4138 27.7678 13.2659C27.9158 13.118 28.1152 13.0331 28.3244 13.0291H33.878C34.0884 13.0291 34.2902 13.1126 34.439 13.2614C34.5878 13.4102 34.6714 13.612 34.6714 13.8224C34.6714 14.0328 34.5878 14.2346 34.439 14.3834C34.2902 14.5322 34.0884 14.6158 33.878 14.6158Z" fill="#0066B3"/>
</g>
<g clip-path="url(#clip2_3005_3551)">
<path d="M41.4308 11.6795H28.3242C28.1138 11.6795 27.912 11.5959 27.7632 11.4472C27.6144 11.2984 27.5308 11.0966 27.5308 10.8862C27.5308 10.6757 27.6144 10.4739 27.7632 10.3251C27.912 10.1764 28.1138 10.0928 28.3242 10.0928H41.5101C41.7205 10.0928 41.9223 10.1764 42.0711 10.3251C42.2199 10.4739 42.3035 10.6757 42.3035 10.8862C42.3041 10.9974 42.2812 11.1075 42.2365 11.2093C42.1918 11.3111 42.1261 11.4024 42.0438 11.4772C41.9615 11.552 41.8644 11.6087 41.7588 11.6435C41.6532 11.6784 41.5414 11.6906 41.4308 11.6795Z" fill="#0066B3"/>
</g>
<g clip-path="url(#clip3_3005_3551)">
<path d="M16.7725 27.547H8.83873C8.62831 27.547 8.42651 27.4634 8.27772 27.3146C8.12894 27.1658 8.04535 26.964 8.04535 26.7536C8.04535 26.5432 8.12894 26.3414 8.27772 26.1926C8.42651 26.0438 8.62831 25.9602 8.83873 25.9602H16.7725C16.9829 25.9602 17.1847 26.0438 17.3335 26.1926C17.4823 26.3414 17.5659 26.5432 17.5659 26.7536C17.5659 26.964 17.4823 27.1658 17.3335 27.3146C17.1847 27.4634 16.9829 27.547 16.7725 27.547Z" fill="#0066B3"/>
</g>
<g clip-path="url(#clip4_3005_3551)">
<path d="M16.7725 24.3731H8.8387C8.62828 24.3731 8.42648 24.2895 8.27769 24.1408C8.12891 23.992 8.04532 23.7902 8.04532 23.5798C8.04532 23.3693 8.12891 23.1675 8.27769 23.0188C8.42648 22.87 8.62828 22.7864 8.8387 22.7864H16.7725C16.9829 22.7864 17.1847 22.87 17.3335 23.0188C17.4823 23.1675 17.5658 23.3693 17.5658 23.5798C17.5658 23.7902 17.4823 23.992 17.3335 24.1408C17.1847 24.2895 16.9829 24.3731 16.7725 24.3731Z" fill="#0066B3"/>
</g>
<g clip-path="url(#clip5_3005_3551)">
<path d="M21.4692 17.2337H9.44165C9.05028 17.2337 8.67494 17.0782 8.39819 16.8014C8.12145 16.5247 7.96597 16.1494 7.96597 15.758V11.6483C7.96597 11.2569 8.12145 10.8816 8.39819 10.6048C8.67494 10.3281 9.05028 10.1726 9.44165 10.1726H21.4692C21.663 10.1726 21.8549 10.2108 22.034 10.2849C22.213 10.3591 22.3757 10.4678 22.5127 10.6048C22.6497 10.7419 22.7584 10.9045 22.8326 11.0836C22.9068 11.2626 22.9449 11.4545 22.9449 11.6483V15.6469C22.9627 15.8504 22.9376 16.0553 22.8712 16.2484C22.8049 16.4415 22.6987 16.6186 22.5596 16.7682C22.4206 16.9177 22.2517 17.0364 22.0638 17.1166C21.876 17.1968 21.6734 17.2367 21.4692 17.2337ZM9.55273 15.6469H21.3582V11.68H9.55273V15.6469Z" fill="#0066B3"/>
</g>
<defs>
<clipPath id="clip0_3005_3551">
<rect x="32.8148" y="25.9602" width="9.52052" height="1.58675" rx="0.793377" fill="white"/>
</clipPath>
<clipPath id="clip1_3005_3551">
<rect x="27.531" y="13.0291" width="7.14039" height="1.58675" rx="0.793377" fill="white"/>
</clipPath>
<clipPath id="clip2_3005_3551">
<rect x="27.5308" y="10.0928" width="14.7727" height="1.59073" rx="0.795366" fill="white"/>
</clipPath>
<clipPath id="clip3_3005_3551">
<rect x="8.04535" y="25.9602" width="9.52052" height="1.58675" rx="0.793377" fill="white"/>
</clipPath>
<clipPath id="clip4_3005_3551">
<rect x="8.04532" y="22.7864" width="9.52052" height="1.58675" rx="0.793377" fill="white"/>
</clipPath>
<clipPath id="clip5_3005_3551">
<rect width="14.9845" height="7.06121" fill="white" transform="translate(7.96597 10.1726)"/>
</clipPath>
</defs>
</svg>
